{"glyphs":{":":{"x_min":0,"x_max":255,"ha":255,"o":"m 11 297 l 115 374 l 137 374 l 199 330 l 229 351 l 240 340 l 140 262 l 119 262 l 58 305 l 24 284 z m 11 23 l 115 100 l 137 100 l 199 56 l 229 77 l 240 66 l 140 -12 l 119 -12 l 58 31 l 24 10 z"},"$":{"x_min":0,"x_max":505,"ha":505,"o":"m 171 394 l 171 565 q 137 560 109 541 q 81 522 81 486 q 81 427 171 394 z m 335 250 l 335 92 q 344 90 362 85 q 380 80 414 66 q 432 90 444 108 q 456 126 456 154 q 456 187 426 209 q 397 231 335 250 z m 481 536 l 371 441 l 337 491 l 335 339 q 412 312 446 277 q 480 242 480 186 q 480 147 462 103 q 443 59 374 -12 l 335 -3 l 335 -124 l 317 -124 l 317 3 q 284 13 251 23 q 217 31 189 31 l 189 -124 l 171 -124 l 171 33 l 153 34 q 96 34 45 6 q -6 -21 -6 -78 q -6 -116 21 -139 q 48 -162 79 -168 l 79 -180 q 33 -172 4 -142 q -24 -111 -24 -65 q -24 -15 24 31 q 73 77 171 99 l 171 303 q 114 323 76 354 q 39 384 39 439 q 39 486 72 525 q 104 564 171 580 l 171 662 l 189 662 l 189 584 q 281 584 317 572 l 317 662 l 335 662 l 335 567 q 383 550 430 519 l 467 550 z m 189 568 l 189 387 l 317 345 l 317 513 q 287 545 258 557 q 228 569 195 569 z m 189 296 l 189 102 q 202 104 210 105 q 217 106 235 106 q 263 106 276 105 q 288 104 317 97 l 317 256 z"},"?":{"x_min":0,"x_max":394,"ha":394,"o":"m 65 9 l 52 22 l 156 99 l 178 99 l 240 55 l 271 76 l 282 65 l 181 -13 l 160 -13 l 100 30 z m 180 159 l 165 150 q 134 209 134 244 q 134 298 234 374 q 333 449 333 491 q 333 529 308 550 q 283 570 254 570 q 208 570 171 525 q 134 480 117 422 l 50 481 q 84 535 124 562 q 165 590 225 590 q 275 590 325 550 q 375 509 375 453 q 375 392 346 368 q 318 344 262 308 q 205 271 184 250 q 162 229 162 203 q 162 192 166 182 q 170 171 180 159 z"},"<":{"x_min":0,"x_max":608,"ha":608,"o":"m 484 42 l 484 -6 l 120 160 l 120 202 l 484 368 l 484 320 l 180 181 z"},"'":{"x_min":0,"x_max":225,"ha":225,"o":"m 145 581 l 128 377 q 128 363 125 354 q 122 346 112 346 q 105 346 101 352 q 97 358 95 377 l 77 581 l 77 604 q 77 636 86 649 q 96 662 112 662 q 131 662 138 642 q 145 621 145 581 z"},"=":{"x_min":0,"x_max":608,"ha":608,"o":"m 484 134 l 484 88 l 120 88 l 120 134 z m 484 274 l 484 228 l 120 228 l 120 274 z"},"a":{"x_min":0,"x_max":451,"ha":451,"o":"m 413 346 l 423 332 l 347 280 l 347 86 l 390 50 l 414 66 l 425 54 l 333 -12 l 322 -12 q 288 19 280 32 q 271 46 271 79 l 122 -12 l 105 -12 q 77 -4 50 18 q 23 41 23 78 q 23 158 163 213 l 79 295 q 58 316 58 337 q 58 352 70 363 q 82 374 103 374 q 121 374 134 364 q 147 355 147 336 q 147 325 144 318 q 140 311 129 303 l 131 301 q 165 301 212 324 q 260 346 284 374 l 300 374 q 306 351 321 338 q 336 325 355 325 q 379 325 413 346 z m 177 42 l 271 101 l 271 276 l 226 310 q 203 298 177 288 q 151 279 121 279 l 224 177 l 212 164 l 176 200 q 136 180 118 163 q 100 146 100 117 q 100 92 120 72 q 140 53 177 42 z"},"L":{"x_min":0,"x_max":730,"ha":730,"o":"m 376 662 l 387 652 q 341 602 300 582 q 260 563 215 563 q 194 563 138 576 q 83 590 78 590 q 30 590 30 547 q 30 529 43 514 q 56 498 86 495 l 76 477 q 51 481 32 500 q 12 519 12 545 q 12 593 50 628 q 87 662 142 662 q 168 662 220 644 q 271 625 279 625 q 304 625 324 631 q 343 637 376 662 z m 309 111 l 305 125 q 337 146 337 212 l 337 493 q 337 549 400 606 q 464 662 536 662 q 559 662 582 654 q 605 647 643 619 l 686 645 l 695 630 l 566 544 q 548 590 538 610 q 529 630 491 630 q 422 630 422 539 l 422 226 q 422 177 378 148 q 335 120 309 111 z m 308 552 l 311 534 q 282 520 282 491 l 282 184 q 282 143 253 118 q 224 92 159 60 l 157 80 q 177 97 187 108 q 197 118 197 137 l 197 301 l 174 301 q 144 301 133 290 q 122 279 122 255 l 101 255 q 100 257 98 266 q 96 275 96 291 q 96 334 113 352 q 130 370 158 370 l 197 370 l 197 431 q 197 477 224 505 q 252 533 308 552 z m 591 86 l 591 395 q 580 396 580 410 q 580 426 600 426 q 619 426 620 410 q 620 397 609 395 l 609 81 l 674 51 l 705 71 l 713 54 l 606 -22 l 589 -22 q 516 11 470 26 q 423 42 338 42 q 263 42 185 4 q 107 -35 107 -104 q 107 -146 137 -173 q 167 -200 218 -200 l 259 -197 l 258 -212 q 254 -212 238 -215 q 222 -218 214 -218 q 160 -218 124 -188 q 89 -159 89 -102 q 89 5 219 56 q 349 106 475 106 q 503 106 521 104 q 539 102 591 86 z"},"3":{"x_min":0,"x_max":505,"ha":505,"o":"m 270 46 l 317 66 l 317 192 q 287 206 258 224 q 229 241 201 265 q 196 262 186 256 q 177 250 145 221 l 136 233 q 168 265 208 292 q 247 318 307 333 l 307 484 l 281 494 q 252 473 220 463 q 188 453 154 453 q 123 453 102 460 q 80 466 74 470 q 67 474 67 479 q 67 485 106 490 q 144 495 174 513 q 204 531 218 552 l 229 552 q 258 523 304 503 q 350 483 402 472 q 402 454 383 454 l 383 353 q 388 351 394 348 q 400 345 400 329 q 372 329 344 324 q 315 319 277 304 l 397 236 q 404 232 410 228 q 416 224 416 219 q 416 210 393 206 l 393 83 q 403 81 410 76 q 416 71 416 61 q 416 54 388 54 q 348 54 298 36 q 248 18 217 -12 l 199 -12 q 171 28 123 43 q 79 53 36 63 q 36 71 70 83 q 105 95 143 95 q 180 95 212 84 q 244 73 270 46 z"},";":{"x_min":0,"x_max":255,"ha":255,"o":"m 11 297 l 115 374 l 137 374 l 199 330 l 229 351 l 240 340 l 140 262 l 119 262 l 58 305 l 24 284 z m 80 -153 l 71 -140 q 139 -101 139 -41 q 139 -17 124 1 q 113 12 98 12 q 88 12 78 10 q 68 8 50 0 l 39 14 l 147 87 l 156 87 q 182 81 196 58 q 211 36 211 6 q 211 -38 182 -78 q 152 -117 80 -153 z"},"J":{"x_min":0,"x_max":561,"ha":561,"o":"m 380 661 l 389 649 q 335 597 304 580 q 273 562 234 562 q 213 562 148 578 q 83 594 75 594 q 55 594 40 580 q 26 565 26 537 q 26 510 44 496 q 61 482 126 482 l 126 464 q 8 464 8 537 q 8 587 48 624 q 89 662 155 662 q 170 662 210 653 q 250 644 294 634 q 311 634 335 640 q 359 647 380 661 z m 209 -18 l 202 -2 q 239 8 239 45 l 239 269 l 219 269 q 181 269 169 260 q 157 252 149 220 l 131 220 q 131 283 146 310 q 160 337 198 337 l 240 337 l 239 448 q 239 500 270 526 q 300 553 356 567 l 363 558 q 344 545 334 532 q 324 518 324 487 l 324 80 q 324 44 298 24 q 271 3 209 -18 z m 504 662 l 510 646 q 484 635 484 584 l 484 64 q 484 -24 422 -77 q 361 -130 231 -130 q 151 -130 92 -94 q 34 -59 34 28 q 34 61 56 88 q 77 114 117 114 q 139 114 154 100 q 170 87 170 57 q 170 34 157 17 q 144 0 117 0 q 99 0 88 10 q 76 20 70 24 q 65 28 61 28 q 52 28 52 8 q 52 -48 103 -80 q 154 -112 213 -112 q 324 -112 362 -66 q 399 -19 399 65 l 399 523 q 399 580 422 608 q 445 637 504 662 z"},"V":{"x_min":0,"x_max":730,"ha":730,"o":"m 369 421 l 369 229 q 390 237 415 242 l 471 245 q 494 245 508 242 q 521 238 531 236 q 541 234 560 227 l 560 420 q 515 405 471 405 q 421 405 369 421 z m 369 207 l 369 88 q 416 68 460 38 l 507 60 q 521 66 533 70 q 545 75 560 79 l 560 205 q 509 227 453 227 q 407 227 369 207 z m 351 93 l 351 528 l 284 493 l 284 109 z m 27 511 l 9 520 q 21 575 60 618 q 98 662 158 662 q 220 662 252 624 q 284 587 284 550 l 284 515 l 351 550 l 351 662 l 369 662 l 369 559 l 532 648 q 558 662 573 662 q 583 662 618 629 q 653 596 675 596 q 693 596 701 602 l 710 587 l 645 542 l 645 112 l 680 92 l 680 74 q 583 74 514 44 q 446 13 400 -22 l 370 -22 q 316 14 276 30 q 235 46 195 46 q 145 46 116 24 q 86 1 86 -46 q 86 -91 113 -123 q 140 -155 184 -170 l 174 -183 q 125 -166 96 -134 q 67 -101 67 -49 q 67 4 106 46 q 144 89 199 102 l 199 301 l 164 301 q 139 301 125 283 q 111 265 111 238 l 86 238 q 78 257 78 289 q 78 330 100 352 q 121 373 152 373 l 199 373 l 199 506 q 199 541 179 562 q 159 584 125 584 q 86 584 61 565 q 36 546 27 511 z m 369 540 l 369 444 q 375 442 388 438 q 400 433 421 428 q 442 423 464 423 q 473 423 484 424 q 496 424 508 426 q 519 428 531 430 q 543 433 560 440 l 560 552 l 486 601 z"},"\"":{"x_min":0,"x_max":338,"ha":338,"o":"m 129 581 l 112 377 q 112 363 109 354 q 106 346 96 346 q 87 346 83 356 q 79 365 78 377 l 61 581 l 61 604 q 61 636 70 649 q 80 662 96 662 q 113 662 121 648 q 129 634 129 581 z m 274 581 l 257 377 q 257 363 254 354 q 251 346 240 346 q 233 346 229 352 q 225 358 223 377 l 206 581 l 206 604 q 206 630 212 646 q 219 662 240 662 q 258 662 266 648 q 274 634 274 581 z"},"7":{"x_min":0,"x_max":505,"ha":505,"o":"m 443 552 l 459 552 q 444 517 383 414 q 322 312 272 228 q 222 145 222 105 q 222 67 251 50 l 304 86 l 315 69 l 199 -12 l 181 -12 q 126 30 126 81 q 126 109 139 137 q 152 165 182 208 q 212 251 258 308 q 305 364 349 414 q 393 464 420 495 l 417 497 q 345 440 253 440 q 227 440 198 446 q 169 451 124 473 l 85 414 l 69 420 l 153 552 l 168 552 q 198 533 252 514 q 306 496 344 496 q 374 496 399 510 q 424 523 443 552 z"},"S":{"x_min":0,"x_max":843,"ha":843,"o":"m 553 332 l 527 293 l 569 281 q 637 262 668 237 q 698 212 698 183 q 698 162 684 142 q 670 123 643 104 l 631 113 q 640 121 646 128 q 651 136 651 142 q 651 157 624 172 q 597 186 535 202 l 484 216 l 417 118 q 457 111 492 96 q 528 80 594 36 q 745 140 745 201 q 745 248 712 274 q 678 299 600 320 z m -2 -110 q -2 -129 11 -143 q 24 -157 52 -157 q 112 -157 179 -116 q 246 -74 344 53 q 286 66 236 66 q 121 66 60 7 q -2 -52 -2 -110 z m 398 122 l 465 220 l 322 253 q 229 274 186 314 q 142 353 142 398 q 142 418 150 436 q 157 455 172 470 l 187 465 q 185 451 184 438 q 184 401 219 376 q 254 351 363 327 l 507 295 l 536 337 l 433 360 q 327 383 273 417 q 219 451 219 518 q 219 588 289 625 q 359 662 429 662 q 492 662 540 645 q 588 628 626 598 l 692 642 l 704 628 l 540 515 q 509 562 472 593 q 434 624 380 624 q 334 624 300 606 q 266 589 266 548 q 266 517 334 484 q 403 451 587 410 q 671 502 700 526 q 730 551 779 569 l 788 556 q 750 539 710 508 q 671 478 611 405 q 706 378 749 344 q 792 311 792 231 q 792 189 754 145 q 716 101 658 58 q 599 15 545 -24 l 515 -24 q 454 20 363 47 q 316 -13 269 -62 q 222 -111 168 -143 q 115 -175 57 -175 q -20 -175 -20 -104 q -20 1 96 66 q 211 130 327 130 q 343 130 362 127 q 382 124 398 122 z"},"}":{"x_min":0,"x_max":338,"ha":338,"o":"m 208 523 l 208 346 q 208 296 222 271 q 235 246 278 233 q 235 219 222 194 q 208 170 208 120 l 208 -57 q 208 -140 177 -168 q 146 -196 80 -196 l 80 -184 q 132 -162 132 -62 l 132 105 q 132 164 150 192 q 169 220 228 232 q 168 246 150 274 q 132 303 132 361 l 132 528 q 132 628 80 650 l 80 662 q 145 662 176 634 q 208 607 208 523 z"},"Z":{"x_min":0,"x_max":675,"ha":675,"o":"m 30 -22 l 30 -8 q 86 31 136 92 q 185 154 257 294 l 107 294 l 80 251 l 60 251 l 125 366 l 297 366 q 341 442 398 496 q 455 550 548 606 l 541 617 q 451 575 388 556 q 326 537 255 537 q 188 537 110 572 l 78 538 l 63 547 l 157 662 q 192 638 240 618 q 289 599 353 599 q 407 599 474 612 q 542 626 627 662 l 633 644 q 552 601 504 536 q 455 470 402 366 l 540 366 l 574 417 l 589 404 l 518 294 l 365 294 l 348 266 q 307 199 259 147 q 211 95 98 25 l 98 12 q 221 73 289 92 q 357 110 422 110 q 470 110 508 101 q 546 92 592 72 l 622 104 l 635 91 l 538 -22 l 524 -22 q 494 5 440 22 q 385 38 309 38 q 244 38 144 12 q 46 -18 30 -22 z"},"x":{"x_min":0,"x_max":451,"ha":451,"o":"m 158 82 l 199 164 q 176 215 144 264 q 113 312 88 312 q 69 312 57 298 l 46 313 q 70 332 96 353 q 123 374 139 374 q 161 374 178 351 q 195 328 238 242 l 308 374 l 315 374 q 329 361 345 348 q 361 336 370 336 q 386 336 397 344 l 409 337 q 402 303 383 284 q 364 264 340 264 q 324 264 308 270 q 291 277 283 288 l 248 222 q 278 158 304 116 q 330 75 339 62 q 348 50 366 50 q 375 50 382 54 q 390 59 401 71 l 413 58 l 328 -12 l 315 -12 q 287 4 261 44 q 235 85 208 140 l 133 0 l 116 0 q 106 15 90 22 q 73 30 57 30 q 40 30 28 23 l 17 31 q 39 74 61 88 q 83 102 110 102 q 115 102 124 100 q 133 99 158 82 z"},")":{"x_min":0,"x_max":338,"ha":338,"o":"m 39 -196 l 39 -168 q 133 -105 168 -7 q 202 91 202 233 q 202 374 168 472 q 134 570 39 634 l 39 662 q 158 596 220 483 q 281 370 281 233 q 281 99 219 -15 q 157 -129 39 -196 z"},"&":{"x_min":0,"x_max":788,"ha":788,"o":"m 319 590 l 197 494 q 243 487 281 458 q 319 429 353 380 q 380 401 397 431 q 414 461 414 491 q 414 522 388 552 q 363 582 319 590 z m 126 113 q 126 70 156 43 q 186 16 233 16 q 266 16 308 34 q 349 52 412 110 l 290 318 q 195 260 160 218 q 126 176 126 113 z m 739 100 l 749 84 q 723 31 680 4 q 638 -22 585 -22 q 541 -22 507 -1 q 473 20 421 94 q 364 40 305 9 q 246 -22 177 -22 q 123 -22 76 8 q 29 38 29 98 q 29 175 85 223 q 141 271 280 330 q 258 365 220 394 q 183 423 119 451 l 378 662 l 394 662 q 444 638 466 608 q 487 578 487 538 q 487 495 468 464 q 448 432 361 362 q 399 302 427 256 q 455 211 471 181 l 556 298 q 573 321 590 346 q 608 372 625 398 q 651 367 669 354 q 687 340 702 340 q 716 340 736 353 l 749 341 q 729 301 707 284 q 685 267 656 267 q 619 267 579 299 l 481 166 q 509 113 540 86 q 571 60 625 60 q 687 60 739 100 z"},"_":{"x_min":0,"x_max":505,"ha":505,"o":"m 501 -125 l 0 -125 l 0 -75 l 501 -75 z"},"v":{"x_min":0,"x_max":451,"ha":451,"o":"m 146 281 l 146 94 l 227 49 l 268 62 l 298 67 l 298 286 l 225 320 z m 374 294 l 374 83 l 394 74 l 394 58 q 316 58 258 43 q 200 28 164 -12 l 145 -12 q 122 11 100 28 q 79 44 52 44 q 33 44 18 32 l 6 45 l 69 88 l 69 276 q 48 297 36 315 q 25 333 25 365 q 25 433 94 496 q 163 559 250 576 l 251 557 q 194 541 149 504 q 104 467 104 401 q 104 375 112 355 q 121 335 144 302 l 288 374 l 312 374 q 362 333 382 333 q 398 333 413 352 l 429 335 z"},"O":{"x_min":0,"x_max":788,"ha":788,"o":"m 450 597 l 449 419 q 474 409 498 404 q 522 399 549 399 q 576 399 598 404 q 619 410 644 419 q 621 480 574 532 q 527 583 463 603 z m 449 400 l 449 214 q 459 218 481 224 q 503 230 537 230 q 562 230 582 226 q 603 222 645 203 q 650 220 655 238 q 659 262 659 290 q 659 317 657 340 q 655 362 648 403 q 635 396 608 388 q 580 381 556 381 q 519 381 500 384 q 481 387 449 400 z m 449 194 l 449 -4 q 517 7 570 60 q 624 113 639 184 q 596 212 537 212 q 493 212 449 194 z m 298 648 l 304 631 q 206 588 173 501 q 140 414 140 288 q 140 142 211 69 q 282 -4 431 -4 l 431 589 l 371 560 l 371 164 q 371 129 346 100 q 321 72 271 59 l 251 72 q 287 96 287 148 l 287 519 l 220 487 l 214 503 l 431 610 l 431 662 l 449 662 l 449 618 l 531 662 l 547 662 q 624 610 662 574 q 699 539 720 484 q 742 430 742 342 q 742 163 636 70 q 531 -22 394 -22 q 223 -22 128 78 q 33 178 33 302 q 33 397 100 493 q 168 589 298 648 z"},"(":{"x_min":0,"x_max":338,"ha":338,"o":"m 296 662 l 296 634 q 202 571 168 474 q 133 376 133 233 q 133 161 141 104 q 149 46 174 -29 q 200 -104 296 -168 l 296 -196 q 179 -131 116 -16 q 54 98 54 233 q 54 366 116 481 q 178 596 296 662 z"},"C":{"x_min":0,"x_max":675,"ha":675,"o":"m 281 640 l 284 628 q 209 591 164 518 q 120 444 120 357 q 120 214 196 127 q 272 40 410 40 q 457 40 493 49 l 493 558 q 434 558 390 595 l 359 574 l 359 228 q 359 182 332 148 q 304 115 258 106 l 254 120 q 262 128 268 139 q 275 150 275 176 l 275 507 l 174 435 l 174 456 l 446 662 l 457 662 q 476 648 494 639 q 513 630 540 630 q 558 630 578 636 q 599 641 623 654 l 628 644 q 618 621 586 594 q 555 566 509 558 l 509 55 q 546 68 568 81 q 591 94 637 135 l 648 124 q 598 57 534 18 q 470 -22 369 -22 q 214 -22 124 66 q 35 155 35 291 q 35 394 96 494 q 156 593 281 640 z"},"W":{"x_min":0,"x_max":956,"ha":956,"o":"m 373 389 l 373 232 q 410 242 433 242 q 452 242 490 234 l 490 387 q 485 386 467 382 q 449 379 437 379 q 407 379 373 389 z m 373 213 l 373 69 l 408 45 q 444 69 490 81 l 490 215 q 457 224 436 224 q 425 224 410 221 q 394 218 373 213 z m 355 74 l 355 542 l 289 495 l 289 88 z m 204 86 l 204 301 q 154 301 132 287 q 111 273 111 238 l 91 238 q 80 266 80 292 q 80 329 108 351 q 137 373 204 373 l 204 522 q 204 580 129 580 q 93 580 66 562 q 39 544 39 515 l 21 515 q 21 570 60 616 q 100 662 164 662 q 217 662 253 628 q 289 593 289 522 l 355 566 l 355 662 l 373 662 l 373 576 l 492 662 l 507 662 q 544 629 558 611 q 572 593 572 514 l 639 559 l 639 662 l 657 662 l 657 572 l 787 662 l 799 662 l 892 598 l 924 618 l 937 603 l 858 553 l 858 93 l 887 60 l 887 44 q 879 48 856 54 q 833 59 810 59 q 780 59 750 54 q 721 48 686 33 q 632 7 600 -6 q 568 -19 555 -19 q 542 -19 528 -8 q 513 2 487 16 q 461 31 429 31 q 398 31 369 4 q 340 -22 326 -22 q 287 -8 248 3 q 209 14 178 14 q 122 14 81 -12 q 40 -39 40 -92 q 40 -124 66 -152 q 91 -181 144 -190 l 135 -204 q 87 -199 54 -164 q 22 -129 22 -79 q 22 -17 72 30 q 123 78 204 86 z m 657 549 l 657 406 q 698 396 720 396 q 736 396 774 404 l 774 551 l 715 587 z m 657 387 l 657 232 q 691 242 715 242 q 733 242 750 238 q 766 235 774 234 l 774 385 q 770 383 756 380 q 742 378 728 378 q 706 378 695 379 q 684 380 657 387 z m 774 76 l 774 213 q 747 218 738 220 q 729 221 718 221 q 700 221 657 211 l 657 42 q 681 54 718 65 q 755 76 774 76 z m 639 535 l 572 493 l 572 80 q 585 80 594 78 q 602 76 639 57 z m 490 406 l 490 516 q 490 538 478 553 q 467 568 427 590 l 373 553 l 373 408 q 407 398 435 398 q 449 398 458 399 q 467 400 490 406 z"},"A":{"x_min":0,"x_max":843,"ha":843,"o":"m 565 273 l 454 544 l 332 273 z m 598 201 l 302 201 l 248 86 q 314 86 352 76 q 389 65 411 46 l 469 82 l 481 71 l 345 -22 l 322 -22 q 296 -2 260 10 q 225 22 181 22 q 127 22 84 -6 q 41 -35 41 -87 q 41 -140 83 -170 q 125 -200 227 -200 q 240 -200 255 -198 q 270 -197 302 -191 l 308 -211 q 293 -211 264 -214 q 236 -218 226 -218 q 135 -218 79 -187 q 23 -156 23 -87 q 23 -25 84 30 q 144 86 225 86 l 364 391 q 344 424 304 424 q 287 424 268 415 q 249 406 236 383 l 221 389 q 234 445 266 468 q 297 492 339 492 q 355 492 368 490 q 381 488 401 476 l 441 558 q 428 568 407 576 q 386 584 357 584 q 324 584 302 572 q 280 561 253 538 l 239 545 q 264 604 307 633 q 350 662 396 662 q 425 662 442 656 q 459 649 482 631 l 497 662 l 509 662 q 511 645 520 612 q 530 579 546 540 l 727 102 q 735 84 750 65 q 764 46 775 45 l 803 61 l 813 49 l 718 -22 l 699 -22 q 672 3 644 74 q 617 145 598 201 z"},"f":{"x_min":0,"x_max":338,"ha":338,"o":"m 67 374 l 121 374 l 121 433 q 121 466 117 496 q 113 527 110 549 q 156 566 183 582 q 210 597 234 627 l 248 627 q 259 608 272 600 q 285 591 294 591 q 309 591 318 602 l 328 597 q 317 529 264 529 q 224 529 201 558 l 197 556 l 197 374 l 254 374 q 274 374 283 390 l 296 382 l 269 322 l 197 322 l 197 88 l 249 51 l 286 75 l 296 63 l 192 -12 l 176 -12 q 155 4 135 21 q 112 36 101 36 q 94 36 86 32 q 77 29 52 14 l 41 25 l 121 79 l 121 322 l 86 322 q 72 322 67 320 q 62 319 53 311 l 42 316 z"},"Q":{"x_min":0,"x_max":788,"ha":788,"o":"m 450 597 l 449 419 q 474 409 498 404 q 522 399 549 399 q 565 399 591 404 q 617 408 644 419 q 621 480 574 532 q 527 583 463 603 z m 449 400 l 449 214 q 459 218 481 224 q 503 230 537 230 q 562 230 582 226 q 603 222 645 203 q 660 263 660 315 q 660 342 656 362 q 652 383 648 403 q 635 396 608 388 q 580 381 556 381 q 519 381 500 384 q 481 387 449 400 z m 371 560 l 371 164 q 371 124 341 96 q 311 69 271 59 l 251 72 q 287 96 287 148 l 287 519 l 220 487 l 214 503 l 431 610 l 431 662 l 449 662 l 449 618 l 531 662 l 547 662 q 625 608 662 574 q 699 539 720 486 q 742 432 742 342 q 742 228 684 134 q 627 40 518 0 q 579 -89 611 -89 q 629 -89 650 -79 l 662 -96 q 629 -115 602 -126 q 575 -138 553 -138 q 517 -138 486 -112 q 455 -85 420 -21 l 394 -22 q 223 -22 128 78 q 33 178 33 302 q 33 397 100 493 q 168 589 298 648 l 304 631 q 211 591 176 508 q 140 425 140 288 q 140 147 206 72 q 273 -2 408 -2 q 386 38 366 38 q 354 38 328 25 l 321 39 q 344 61 366 67 q 389 73 431 73 l 431 589 z m 449 194 l 449 67 q 453 69 470 56 q 486 42 506 15 q 552 35 590 82 q 629 129 639 184 q 596 212 537 212 q 493 212 449 194 z"},"w":{"x_min":0,"x_max":675,"ha":675,"o":"m 506 63 l 506 281 l 453 318 l 371 275 l 371 126 q 371 105 386 88 q 401 71 445 45 z m 234 44 l 295 76 l 295 278 l 243 317 l 158 278 l 158 100 z m 635 344 l 648 329 l 582 285 l 582 79 q 586 80 597 76 q 608 73 608 62 q 607 60 602 56 q 598 51 581 51 q 506 51 454 32 q 401 13 380 -12 l 364 -12 l 303 58 l 221 16 q 202 5 186 -4 q 170 -12 162 -12 q 153 -12 142 0 q 131 11 114 29 q 97 47 78 47 q 60 47 34 24 l 21 35 l 81 83 l 81 273 q 64 290 52 313 q 41 336 41 365 q 41 438 116 498 q 192 558 274 567 l 274 549 q 213 537 166 497 q 118 457 118 397 q 118 371 124 349 q 131 327 156 296 l 307 374 l 321 374 q 345 353 358 340 q 371 327 371 296 l 513 374 l 530 374 q 548 355 566 338 q 584 321 597 321 q 613 321 635 344 z"},"-":{"x_min":0,"x_max":338,"ha":338,"o":"m 74 150 l 50 124 l 37 132 l 103 212 l 261 212 l 281 235 l 295 225 l 231 150 z"},"E":{"x_min":0,"x_max":730,"ha":730,"o":"m 376 661 l 386 654 q 354 606 315 583 q 276 560 213 560 q 200 560 146 574 q 92 588 76 588 q 57 588 43 576 q 29 564 29 541 q 29 522 40 505 q 51 488 67 477 l 57 464 q 29 489 20 505 q 11 521 11 549 q 11 589 54 626 q 96 662 155 662 q 172 662 216 652 q 259 642 305 632 q 320 632 334 636 q 348 640 376 661 z m 375 355 l 375 117 q 447 117 518 102 l 518 286 q 518 320 490 346 q 463 371 421 371 q 414 371 406 370 q 397 369 375 355 z m 317 542 l 324 530 q 312 525 302 510 q 291 494 291 470 l 291 214 q 291 174 263 148 q 235 123 185 104 l 176 123 q 186 128 196 138 q 206 149 206 167 l 206 292 l 186 292 q 151 292 138 286 q 124 281 116 253 l 98 253 q 98 334 120 352 q 141 370 207 370 l 206 441 q 206 467 222 486 q 239 505 317 542 z m 357 117 l 357 498 q 357 561 403 612 q 449 662 536 662 q 571 662 613 643 q 654 621 665 616 l 698 637 l 709 624 l 589 536 q 549 571 531 584 q 513 598 462 598 q 429 598 402 574 q 375 551 375 498 l 375 377 q 398 395 430 410 q 461 425 495 425 q 554 425 602 373 l 644 402 l 658 385 l 536 306 l 536 95 q 549 90 563 85 q 587 74 625 50 l 661 75 l 673 61 l 558 -22 l 532 -22 q 480 13 418 33 q 356 53 289 53 q 195 53 146 16 q 98 -22 98 -77 q 98 -130 144 -165 q 190 -200 260 -200 q 334 -200 399 -179 l 413 -195 q 333 -218 264 -218 q 192 -218 136 -181 q 79 -144 79 -74 q 79 17 173 67 q 267 117 357 117 z"},"s":{"x_min":0,"x_max":451,"ha":451,"o":"m 145 206 l 227 206 l 336 323 l 334 325 q 303 309 278 300 q 254 290 229 290 q 207 290 196 296 q 184 301 162 323 l 145 315 z m 311 48 l 311 174 l 221 174 l 102 45 l 104 43 q 120 52 146 65 q 173 78 208 78 q 230 78 254 72 q 278 65 296 48 z m 386 374 l 398 365 l 261 218 l 396 218 q 410 218 410 208 q 410 193 387 190 l 387 79 q 397 76 402 70 q 408 64 408 59 q 408 51 391 50 q 341 50 301 32 q 261 15 236 -12 l 220 -12 q 194 6 170 13 q 145 20 121 20 q 101 20 88 14 q 76 8 48 -9 l 35 0 l 183 157 l 56 157 q 38 157 38 168 q 38 177 68 191 l 68 287 q 56 296 51 303 q 46 310 46 317 q 65 316 108 320 q 151 325 215 374 l 230 374 q 258 360 276 354 q 295 347 309 347 q 329 347 344 352 q 360 357 386 374 z"},">":{"x_min":0,"x_max":608,"ha":608,"o":"m 120 320 l 120 368 l 484 202 l 484 160 l 120 -6 l 120 42 l 424 181 z"},"l":{"x_min":0,"x_max":283,"ha":283,"o":"m 89 586 l 103 595 l 126 546 q 130 553 158 585 q 187 617 206 634 l 217 619 q 197 595 186 560 q 174 526 174 477 l 174 81 l 219 51 l 245 68 l 257 56 l 167 -12 l 148 -12 q 125 14 109 24 q 93 35 78 35 q 65 35 38 17 l 24 31 l 98 69 l 98 510 q 98 550 89 586 z"},"8":{"x_min":0,"x_max":505,"ha":505,"o":"m 329 331 l 329 461 l 234 505 l 172 481 l 172 356 l 273 308 z m 158 95 l 277 43 l 345 65 l 345 199 l 216 256 l 158 229 z m 81 88 l 81 201 l 63 210 l 63 222 q 83 222 124 232 q 164 243 195 265 l 74 321 l 74 331 l 96 340 l 96 456 l 76 466 l 76 478 q 141 487 193 506 q 245 524 286 552 l 302 552 q 330 536 364 521 q 399 506 431 506 q 444 506 452 510 l 452 495 l 405 458 l 405 356 l 422 346 l 422 334 q 397 334 376 330 q 356 325 288 300 l 411 243 q 436 234 436 223 q 436 214 416 211 l 416 83 l 429 72 l 429 60 q 368 60 311 42 q 254 24 211 -12 l 199 -12 q 182 5 144 27 q 107 49 74 49 q 53 49 38 38 l 27 45 z"},"\\":{"x_min":0,"x_max":283,"ha":283,"o":"m -66 662 l -20 662 l 346 -22 l 300 -22 z"},"e":{"x_min":0,"x_max":338,"ha":338,"o":"m 136 159 l 249 225 l 170 330 l 136 317 z m 59 72 l 59 285 q 35 296 35 314 q 81 314 136 334 q 190 355 214 374 l 225 374 l 317 256 l 317 241 l 136 138 l 136 88 l 220 45 l 300 89 l 314 75 l 158 -12 l 142 -12 q 66 43 53 43 q 42 43 15 27 l 1 38 z"},"b":{"x_min":0,"x_max":451,"ha":451,"o":"m 145 262 l 145 86 q 185 68 216 42 q 224 45 246 53 q 267 61 299 70 l 299 278 l 231 317 z m 53 597 l 64 605 q 72 597 79 586 q 86 574 97 552 q 112 574 172 634 l 185 622 q 168 608 156 584 q 145 561 145 514 l 145 285 l 290 375 l 304 375 q 372 324 388 324 q 397 324 410 334 q 422 343 428 348 l 441 334 l 375 292 l 375 86 l 397 70 l 397 50 l 346 52 q 298 52 266 42 q 235 32 142 -12 q 127 0 97 17 q 67 34 54 34 q 44 34 37 30 q 30 27 20 15 l 6 27 l 68 72 l 68 538 q 68 551 65 564 q 62 578 53 597 z"},"%":{"x_min":0,"x_max":843,"ha":843,"o":"m 582 259 l 582 78 l 660 37 l 723 60 l 723 233 l 650 276 z m 592 552 l 636 552 l 236 -12 l 192 -12 z m 108 486 l 108 305 l 185 264 l 248 287 l 248 460 l 175 503 z m 39 289 l 39 462 q 29 466 24 472 q 18 477 18 490 q 59 490 112 504 q 165 519 214 552 l 237 552 q 241 549 280 526 q 318 503 323 503 q 335 503 346 511 q 358 519 364 523 l 373 510 l 317 467 l 317 314 q 340 304 340 280 q 288 280 234 262 q 180 245 136 214 l 121 214 q 86 235 64 245 q 41 255 29 255 q 23 255 11 251 l -8 237 l -14 252 z m 516 62 l 516 235 q 503 241 500 246 q 496 252 496 263 q 536 263 589 278 q 642 292 691 325 l 714 325 q 756 298 776 287 q 795 276 800 276 q 812 276 824 284 q 835 292 841 296 l 850 283 l 794 240 l 794 87 q 817 77 817 53 q 765 53 711 36 q 657 18 613 -13 l 598 -13 q 563 8 540 18 q 518 28 506 28 q 500 28 490 24 l 471 10 l 465 25 z"},"m":{"x_min":0,"x_max":675,"ha":675,"o":"m 156 251 l 156 82 l 196 55 l 226 70 l 238 56 l 135 -12 l 126 -12 q 98 17 84 28 q 69 40 59 40 q 52 40 38 31 l 16 17 l 6 31 l 79 80 l 79 257 q 79 280 66 294 q 52 309 35 309 q 25 309 15 301 l 8 317 l 88 374 l 105 374 q 136 346 146 334 q 156 322 156 275 l 305 374 l 321 374 q 338 356 356 339 q 376 315 376 271 l 520 374 l 534 374 q 543 360 562 344 q 581 329 595 329 q 605 329 616 333 q 626 337 645 351 l 656 338 l 591 293 l 591 103 q 591 85 596 76 q 602 68 628 49 l 655 69 l 669 53 l 575 -12 l 564 -12 q 531 15 522 28 q 514 40 514 61 l 514 282 l 466 312 l 374 247 l 374 79 l 409 54 l 444 73 l 454 61 l 351 -12 l 341 -12 l 262 41 l 298 66 l 298 248 q 298 294 251 315 z"},"#":{"x_min":0,"x_max":505,"ha":505,"o":"m 313 327 l 208 327 l 191 211 l 297 211 z m 418 211 l 416 171 l 334 171 l 310 0 l 267 0 l 292 171 l 186 171 l 162 0 l 119 0 l 144 171 l 57 171 l 60 211 l 149 211 l 165 327 l 80 327 l 82 367 l 171 367 l 194 540 l 238 540 l 213 367 l 319 367 l 343 540 l 386 540 l 361 367 l 442 367 l 439 327 l 356 327 l 340 211 z"},",":{"x_min":0,"x_max":255,"ha":255,"o":"m 80 -153 l 71 -140 q 139 -101 139 -41 q 139 -17 124 1 q 113 12 98 12 q 88 12 78 10 q 68 8 50 0 l 39 14 l 147 87 l 156 87 q 182 81 196 58 q 211 36 211 6 q 211 -38 182 -78 q 152 -117 80 -153 z"},"n":{"x_min":0,"x_max":505,"ha":505,"o":"m 485 51 l 397 -12 l 382 -12 q 352 13 340 27 q 329 41 329 70 l 329 277 l 285 313 l 172 227 l 172 82 l 216 54 l 242 70 l 255 58 l 157 -12 l 143 -12 q 129 1 112 16 q 96 32 77 32 q 65 32 54 26 q 43 19 34 5 l 18 18 l 96 74 l 96 274 l 53 313 l 29 293 l 14 307 l 107 374 l 126 374 q 156 340 164 328 q 172 317 172 254 l 341 374 l 358 374 q 370 357 389 340 q 408 323 421 323 q 440 323 469 348 l 481 333 l 405 281 l 405 124 q 405 73 451 53 l 474 68 z"},"h":{"x_min":0,"x_max":451,"ha":451,"o":"m 144 251 l 144 82 l 181 54 l 212 75 l 222 61 l 118 -12 l 105 -12 q 66 39 39 39 q 28 39 15 28 l 2 42 l 67 81 l 67 510 q 67 549 53 603 l 66 613 q 72 606 80 590 q 88 573 98 554 q 105 568 126 592 q 147 617 170 634 l 182 621 q 162 593 153 572 q 144 552 144 510 l 144 271 l 304 374 q 328 357 352 343 q 376 329 396 329 q 410 329 423 336 l 435 321 l 372 282 l 372 67 l 405 41 l 400 28 q 380 35 362 35 q 334 35 316 20 q 299 4 299 -13 q 299 -26 336 -76 q 372 -127 372 -144 q 372 -170 354 -192 q 335 -214 296 -220 l 282 -207 q 295 -201 302 -190 q 310 -178 310 -158 q 310 -149 294 -108 q 277 -67 277 -30 q 277 -13 286 14 q 296 40 296 52 l 296 282 l 245 312 z"},"z":{"x_min":0,"x_max":394,"ha":394,"o":"m 71 140 l 57 154 l 105 208 l 209 208 l 282 283 l 280 285 q 261 279 232 272 q 203 264 170 264 q 155 264 119 279 q 83 294 68 294 q 58 294 50 288 l 37 299 q 51 308 64 320 q 76 333 92 350 q 107 366 114 374 l 129 374 q 151 357 186 342 q 220 326 257 326 q 288 326 310 334 q 331 342 362 365 l 371 355 l 234 208 l 286 208 q 301 208 312 214 q 323 220 330 230 l 341 219 l 298 162 l 191 162 l 102 66 l 104 64 q 139 76 168 84 q 197 92 227 92 q 292 92 335 58 l 360 75 l 370 64 q 362 60 334 32 q 307 3 298 -4 q 290 -12 280 -12 q 272 -12 257 -6 q 194 24 184 27 q 175 30 145 30 q 103 30 82 22 q 62 15 25 -12 l 12 0 l 167 162 l 122 162 q 103 162 90 156 q 77 151 71 140 z"},"B":{"x_min":0,"x_max":788,"ha":788,"o":"m 402 644 l 415 634 q 383 598 346 576 q 309 555 269 555 q 258 555 240 559 q 222 563 188 576 q 153 590 136 595 q 119 600 103 600 q 76 600 60 585 q 45 570 40 558 q 36 546 36 531 q 36 500 53 481 l 41 472 q 17 501 17 537 q 17 584 60 623 q 102 662 164 662 l 176 662 q 193 662 208 659 q 223 656 250 646 q 276 635 302 626 q 327 617 336 617 q 349 617 366 622 q 382 627 402 644 z m 491 322 l 491 253 q 522 237 564 237 q 583 237 595 240 q 607 244 627 252 q 627 294 614 312 q 602 330 568 346 z m 627 144 l 627 234 q 592 219 560 219 q 520 219 491 236 l 491 146 q 501 150 518 154 q 536 158 550 158 q 567 158 584 154 q 602 150 627 144 z m 627 67 l 627 123 q 614 129 591 134 q 568 140 547 140 q 536 140 527 138 q 518 137 491 127 l 491 42 l 503 36 q 524 46 564 56 q 604 67 627 67 z m 198 145 l 198 302 q 144 302 130 294 q 116 286 108 253 l 90 253 q 90 312 110 336 q 131 361 198 370 l 198 419 q 198 454 230 485 q 263 516 318 529 l 324 515 q 307 508 295 494 q 283 481 283 448 l 283 192 q 283 159 254 130 q 225 101 163 78 l 165 101 q 198 112 198 145 z m 473 50 l 473 477 l 491 477 l 491 340 q 554 353 588 396 q 621 438 621 532 q 621 596 608 613 q 594 630 557 630 q 521 630 470 595 q 420 560 420 510 l 420 236 q 420 189 396 164 q 373 138 296 106 l 296 127 q 335 140 335 205 l 335 477 q 335 515 426 588 q 518 662 593 662 q 638 662 676 632 q 713 602 713 542 q 713 493 687 450 q 661 407 574 357 q 629 347 670 328 q 711 309 711 265 l 711 88 q 711 79 716 72 q 720 65 737 58 l 730 45 q 699 49 651 49 q 571 49 505 17 q 450 -18 442 -22 l 411 -22 q 390 -13 348 4 q 306 20 235 20 q 174 20 118 -6 q 62 -31 62 -87 q 62 -139 100 -170 q 139 -200 219 -200 q 268 -200 320 -187 l 330 -206 q 298 -211 269 -214 q 240 -218 224 -218 q 143 -218 94 -186 q 44 -153 44 -86 q 44 -13 138 34 q 232 82 320 82 q 353 82 388 76 q 422 71 473 50 z"},"K":{"x_min":0,"x_max":788,"ha":788,"o":"m 461 62 l 461 375 l 402 336 l 402 264 q 402 189 374 162 q 346 136 283 118 l 277 134 q 297 146 308 157 q 318 168 318 189 l 318 484 q 318 544 400 603 q 481 662 547 662 q 574 662 596 654 q 618 647 659 622 l 709 652 l 720 639 l 584 544 q 577 582 552 603 q 527 624 495 624 q 466 624 434 603 q 402 582 402 538 l 402 359 l 461 399 l 461 515 l 479 515 l 479 412 l 577 479 l 711 351 l 584 262 q 613 236 638 194 q 662 153 674 123 q 687 93 697 71 q 707 49 721 49 q 734 49 756 68 l 767 56 l 662 -22 l 643 -22 q 621 32 590 105 q 560 178 530 221 l 479 188 l 479 45 l 531 82 l 545 68 l 434 -13 l 422 -21 l 408 -22 q 288 26 229 26 q 168 26 123 -2 q 78 -30 78 -93 q 78 -147 118 -174 q 159 -200 247 -200 q 278 -200 289 -199 q 300 -198 321 -192 l 333 -211 l 259 -218 q 153 -218 106 -186 q 60 -154 60 -85 q 60 -9 136 40 q 213 88 288 88 q 383 88 461 62 z m 377 663 l 387 648 q 341 605 307 584 q 273 563 219 563 q 201 563 146 576 q 91 590 81 590 q 63 590 48 579 q 33 568 33 548 q 33 527 46 509 q 60 491 96 481 l 96 465 q 56 474 36 495 q 15 516 15 555 q 15 606 64 634 q 113 662 163 662 q 182 662 218 652 q 255 642 294 631 q 313 631 334 638 q 354 645 377 663 z m 479 389 l 479 211 l 628 316 l 525 421 z m 288 539 l 291 521 q 275 515 268 504 q 262 494 262 478 l 262 191 q 262 160 242 134 q 221 107 157 86 l 147 100 q 162 108 170 118 q 177 129 177 144 l 177 301 l 150 301 q 126 301 114 297 q 101 293 94 271 l 76 271 q 76 322 96 348 q 116 374 147 374 l 178 374 l 177 418 q 177 454 198 484 q 219 513 288 539 z"},"R":{"x_min":0,"x_max":788,"ha":788,"o":"m 396 537 l 396 306 l 502 359 q 552 384 572 413 q 592 442 592 481 q 592 518 568 559 q 543 600 521 600 l 511 597 l 493 588 z m 378 527 l 303 491 l 303 93 q 322 93 338 90 q 354 87 378 76 z m 218 97 l 218 301 q 166 301 145 288 q 124 276 124 252 l 103 252 q 100 270 100 285 q 100 330 128 352 q 155 373 218 373 l 218 494 q 218 532 202 556 q 187 580 140 580 q 112 580 86 564 q 61 549 52 516 l 34 519 q 40 580 78 621 q 116 662 171 662 q 234 662 268 630 q 303 597 303 548 l 303 510 l 378 548 l 378 630 q 368 633 368 647 q 368 662 387 662 q 407 662 407 645 q 407 634 396 630 l 396 558 l 593 662 l 602 662 q 636 637 655 602 q 674 567 674 527 q 674 428 523 354 q 584 332 602 293 q 640 178 667 115 q 694 52 715 42 l 752 66 l 765 52 l 656 -22 q 627 -18 608 4 q 590 25 573 100 q 556 174 534 236 q 511 299 478 324 l 396 285 l 396 69 q 411 59 420 53 q 429 47 437 38 l 502 80 l 515 67 l 385 -22 l 362 -22 q 333 3 294 19 q 254 35 204 35 q 128 35 84 6 q 40 -24 40 -87 q 40 -145 87 -172 q 134 -200 224 -200 l 287 -190 l 287 -209 q 248 -218 209 -218 q 117 -218 70 -185 q 22 -152 22 -74 q 22 6 84 52 q 145 97 218 97 z"},"T":{"x_min":0,"x_max":730,"ha":730,"o":"m 685 645 l 698 638 q 665 556 575 532 l 575 67 q 616 84 642 107 q 669 130 686 154 l 698 142 q 643 53 571 16 q 499 -22 410 -22 q 271 -22 180 48 q 90 118 90 246 q 90 348 146 430 q 202 511 298 549 l 306 534 q 246 507 210 442 q 174 378 174 307 q 174 203 246 122 q 317 42 456 42 q 474 42 498 46 q 523 49 557 61 l 557 532 q 512 532 465 542 l 429 519 l 429 207 q 429 158 400 130 q 372 103 330 94 l 324 109 q 331 114 338 122 q 344 129 344 141 l 344 458 l 271 408 l 260 426 l 441 548 l 199 598 q 141 598 90 572 q 38 546 38 490 q 38 464 46 449 q 53 434 79 428 l 73 410 q 53 410 36 432 q 20 453 20 480 q 20 554 93 608 q 166 662 273 662 q 302 662 436 639 q 570 616 611 616 q 628 616 649 622 q 670 627 685 645 z"},"P":{"x_min":0,"x_max":730,"ha":730,"o":"m 346 -177 l 346 527 l 278 493 l 278 -129 z m 278 515 l 346 551 l 346 662 l 365 662 l 365 562 q 411 583 434 594 q 458 605 488 620 q 517 636 532 646 q 547 655 559 662 l 569 662 l 638 609 q 643 604 648 600 q 653 597 661 597 q 674 597 700 612 l 713 597 l 639 546 l 639 84 l 683 62 l 683 39 q 658 41 645 42 q 632 43 621 43 q 575 43 534 30 q 493 16 452 -22 l 436 -22 l 364 14 l 364 -219 l 266 -145 l 149 -214 l 142 -205 q 193 -170 193 -122 l 193 39 q 89 39 43 -49 l 31 -45 q 47 10 88 50 q 128 89 193 104 l 193 301 l 158 301 q 133 301 117 286 q 101 271 97 238 l 79 238 q 72 258 72 289 q 72 373 193 373 l 193 506 q 193 543 170 566 q 148 590 111 590 q 75 590 58 578 q 40 567 24 521 l 6 521 q 6 585 44 624 q 83 662 145 662 q 196 662 237 628 q 278 594 278 538 z m 554 442 l 554 544 l 480 597 l 365 538 l 365 442 q 382 433 407 427 q 432 421 454 421 q 509 421 554 442 z m 365 424 l 365 228 q 415 247 467 247 q 483 247 502 243 q 520 239 554 226 l 554 422 q 509 403 463 403 q 431 403 410 408 q 388 412 365 424 z m 365 209 l 365 111 q 397 106 428 94 q 458 81 513 38 l 554 53 l 554 207 q 530 214 507 222 q 479 229 457 229 q 413 229 365 209 z"},"|":{"x_min":0,"x_max":225,"ha":225,"o":"m 89 0 l 89 634 l 135 634 l 135 0 z"},"t":{"x_min":0,"x_max":283,"ha":283,"o":"m 236 322 l 171 322 l 171 82 l 215 52 l 253 78 l 265 66 l 161 -12 l 149 -12 q 90 37 67 37 q 58 37 50 32 q 42 28 30 19 l 19 32 l 95 81 l 95 322 q 61 322 50 320 q 39 317 31 304 l 19 309 l 46 374 l 95 374 l 95 512 l 171 559 l 171 374 l 212 374 q 235 374 255 394 l 264 387 z"},"M":{"x_min":0,"x_max":1013,"ha":1013,"o":"m 694 556 l 694 373 l 813 373 l 813 555 l 758 592 z m 614 505 l 614 80 l 676 49 l 676 542 z m 418 581 l 418 373 l 529 373 l 529 534 q 529 551 518 563 q 507 575 461 600 z m 973 628 l 986 615 l 897 556 l 897 106 q 897 93 904 82 q 912 70 949 43 l 980 65 l 988 51 q 945 19 918 -1 q 890 -21 877 -21 q 870 -21 851 -1 q 832 19 822 38 q 813 58 813 80 l 813 301 l 694 301 l 694 54 l 734 81 l 746 68 l 615 -22 l 599 -22 q 516 26 493 26 q 479 26 466 18 q 454 11 440 0 l 427 13 l 529 86 l 529 301 l 418 301 l 418 112 q 418 41 377 10 q 336 -22 272 -22 q 250 -22 178 -7 q 106 8 95 8 q 23 8 23 -70 q 23 -133 82 -167 q 140 -201 219 -201 q 277 -201 319 -183 l 332 -199 q 325 -203 310 -207 q 294 -211 280 -213 q 267 -215 248 -216 q 229 -217 214 -217 q 119 -217 62 -180 q 5 -143 5 -68 q 5 1 46 42 q 88 82 154 82 q 176 82 242 67 q 308 52 319 52 q 353 52 376 66 q 400 80 400 128 l 400 574 l 380 566 q 363 558 352 544 q 341 530 341 502 l 341 206 q 341 164 320 138 q 298 112 244 100 l 235 116 q 257 124 257 137 l 257 301 l 221 301 q 197 301 182 286 q 168 272 168 238 l 143 238 q 135 259 135 287 q 135 324 152 348 q 169 373 209 373 l 257 373 l 257 440 q 257 527 343 569 l 532 662 l 546 662 q 585 638 600 624 q 614 609 614 576 l 614 529 l 676 566 l 676 633 q 674 636 672 641 q 671 646 671 650 q 671 662 685 662 q 699 662 699 650 q 699 645 698 641 q 697 637 694 633 l 694 579 l 838 662 l 848 662 l 931 601 z"},"g":{"x_min":0,"x_max":451,"ha":451,"o":"m 29 27 l 14 36 l 68 76 l 68 284 q 59 288 52 296 q 45 304 45 316 q 110 316 175 327 q 240 338 276 374 l 294 374 q 332 345 350 334 q 369 323 381 323 q 393 323 415 339 l 428 324 l 372 287 l 372 50 q 394 39 413 15 q 432 -9 432 -50 q 432 -92 410 -118 q 389 -143 347 -165 l 200 -237 l 189 -237 q 161 -204 136 -184 q 110 -165 69 -165 q 58 -165 50 -168 q 41 -171 22 -182 l 7 -170 l 186 -13 l 85 35 q 83 36 74 38 q 65 41 61 41 q 46 41 29 27 z m 145 302 l 145 89 l 258 50 l 296 81 l 296 278 l 205 317 z m 295 56 l 59 -146 l 64 -150 q 102 -132 152 -132 q 181 -132 208 -142 q 235 -152 267 -180 l 321 -154 q 345 -144 360 -128 q 375 -113 375 -87 q 375 -60 335 -23 q 295 14 295 56 z"},"j":{"x_min":0,"x_max":283,"ha":283,"o":"m 45 496 l 135 568 l 147 568 l 195 529 l 223 550 l 234 537 l 148 464 l 135 464 l 88 506 l 59 484 z m 232 351 l 245 336 l 173 281 l 173 52 q 191 43 206 24 q 220 6 220 -27 q 220 -53 211 -73 q 202 -93 166 -122 q 130 -152 116 -172 q 102 -191 102 -227 l 83 -227 q 79 -212 79 -196 q 79 -178 86 -166 q 92 -155 119 -119 q 146 -83 146 -58 q 146 -38 122 0 q 97 38 97 50 l 97 283 l 66 309 l 36 290 l 21 302 l 124 374 l 133 374 l 174 341 q 188 331 196 331 q 203 331 212 337 z"},"i":{"x_min":0,"x_max":283,"ha":283,"o":"m 37 496 l 127 568 l 139 568 l 187 529 l 215 550 l 226 537 l 140 464 l 127 464 l 79 506 l 51 484 z m 17 306 l 120 378 l 129 378 q 178 335 191 335 q 199 335 210 342 q 220 349 228 355 l 241 340 l 169 285 l 169 101 q 169 81 178 71 q 187 61 205 61 q 212 61 220 62 q 228 64 245 71 l 256 58 l 159 -12 l 135 -12 l 93 48 l 93 287 l 62 313 l 32 294 z"},"y":{"x_min":0,"x_max":451,"ha":451,"o":"m 298 288 l 258 314 l 142 236 l 142 73 q 142 43 158 28 q 175 14 219 14 q 258 14 278 26 q 298 38 298 73 z m 423 345 l 434 330 l 374 289 l 374 109 q 374 11 236 -9 q 98 -29 98 -66 q 98 -75 106 -82 q 113 -90 134 -90 q 150 -90 176 -84 q 215 -69 252 -60 q 288 -50 316 -50 q 353 -50 374 -67 q 396 -84 396 -126 q 396 -177 344 -208 q 292 -238 192 -238 q 155 -238 119 -227 l 119 -211 q 131 -213 156 -216 q 182 -220 195 -220 q 251 -220 310 -204 q 368 -187 368 -146 q 368 -131 358 -124 q 347 -116 330 -116 q 311 -116 288 -122 q 266 -128 227 -140 q 188 -153 149 -153 q 112 -153 91 -137 q 70 -121 70 -89 q 70 -52 98 -32 q 125 -11 176 -3 q 127 3 96 26 q 65 49 65 101 l 65 289 l 39 319 l 16 306 l 5 319 l 87 374 l 106 374 q 126 365 134 351 q 142 337 142 314 l 142 259 l 312 374 l 332 374 q 344 360 360 347 q 376 334 396 334 q 412 334 423 345 z"},"@":{"x_min":0,"x_max":810,"ha":810,"o":"m 746 370 q 746 265 680 204 q 615 143 538 143 q 495 143 467 165 q 439 187 439 229 l 290 137 l 273 137 q 245 146 218 168 q 191 191 191 228 q 191 307 331 362 l 247 444 q 226 465 226 486 q 226 501 238 512 q 250 523 271 523 q 289 523 302 514 q 315 504 315 485 q 315 474 312 467 q 308 460 297 452 l 299 450 q 333 450 380 472 q 428 495 452 523 l 468 523 q 473 506 485 490 q 497 475 522 475 q 535 475 548 479 q 560 483 579 496 l 589 481 l 513 429 l 513 235 q 544 192 583 192 q 631 192 672 250 q 712 307 712 369 q 712 463 634 550 q 557 636 421 636 q 283 636 208 538 q 133 441 133 294 q 133 163 224 88 q 316 12 430 12 q 485 12 525 22 q 565 33 626 59 l 639 34 q 572 3 521 -10 q 470 -22 431 -22 q 253 -22 154 81 q 56 184 56 305 q 56 473 167 568 q 278 662 421 662 q 580 662 663 572 q 746 483 746 370 z m 439 250 l 439 425 l 394 459 q 371 447 345 438 q 319 428 289 428 l 392 326 l 380 313 l 344 350 q 302 329 285 312 q 268 296 268 266 q 268 241 288 222 q 308 202 345 191 z"},".":{"x_min":0,"x_max":255,"ha":255,"o":"m 24 10 l 11 23 l 115 100 l 137 100 l 199 56 l 229 77 l 240 66 l 140 -12 l 119 -12 l 58 31 z"},"p":{"x_min":0,"x_max":451,"ha":451,"o":"m 245 316 l 156 262 l 156 100 q 206 100 240 86 q 275 71 298 46 l 308 52 l 308 286 z m 25 -221 l 79 -188 l 79 51 q 63 46 47 38 q 31 29 17 21 l 7 32 q 16 43 32 53 q 48 63 79 79 l 79 271 q 79 284 73 294 q 67 305 46 305 q 32 305 17 300 l 5 310 l 89 374 l 103 374 q 133 357 144 340 q 156 323 156 284 l 302 374 l 318 374 l 396 328 l 428 346 l 439 333 l 384 296 l 384 83 q 413 76 413 63 q 413 55 392 55 q 316 55 248 -12 l 235 -12 q 220 11 199 26 q 178 40 156 44 l 156 -169 l 37 -237 z"},"X":{"x_min":0,"x_max":730,"ha":730,"o":"m 369 297 l 212 -22 l 198 -22 q 185 -11 161 -2 q 137 8 111 8 q 86 8 64 2 q 42 -3 27 -22 l 7 -22 q 14 29 50 66 q 85 102 151 102 q 202 102 235 75 l 353 304 l 151 304 l 129 262 l 109 262 l 171 382 l 323 382 l 241 518 q 220 556 196 569 q 173 582 142 582 q 94 582 55 543 l 41 543 q 48 595 90 628 q 132 662 183 662 q 221 662 252 642 q 284 622 323 555 l 408 407 l 535 662 l 551 662 q 581 631 625 631 q 661 631 692 653 l 705 640 q 681 591 646 566 q 610 540 572 540 q 537 540 506 562 l 420 382 l 633 382 l 654 414 l 666 406 l 602 304 l 469 304 l 585 107 q 620 50 650 50 q 669 50 698 71 l 709 56 l 627 -2 q 617 -8 604 -16 q 591 -23 580 -23 q 560 -23 540 14 z"},"*":{"x_min":0,"x_max":505,"ha":505,"o":"m 207 640 l 286 640 l 267 501 l 396 561 l 421 490 l 276 466 l 380 362 l 319 316 l 250 446 l 180 317 l 120 359 l 224 466 l 75 487 l 102 559 l 229 502 z"},"Y":{"x_min":0,"x_max":730,"ha":730,"o":"m 559 551 l 481 597 l 376 542 l 376 410 q 391 405 413 400 q 435 394 461 394 q 487 394 507 398 q 527 401 559 412 z m 376 391 l 376 206 q 420 222 461 222 q 497 222 559 207 l 559 392 q 539 385 514 380 q 490 374 462 374 q 442 374 420 378 q 397 382 376 391 z m 376 185 l 376 4 q 451 4 505 26 q 559 49 559 100 l 559 188 q 505 203 463 203 q 418 203 376 185 z m 358 530 l 294 498 l 294 85 q 294 23 358 7 z m 32 514 l 14 514 q 14 574 50 618 q 85 662 161 662 q 218 662 256 628 q 294 593 294 519 l 359 552 l 359 662 l 377 662 l 377 564 l 515 639 q 530 649 545 656 q 560 662 567 662 q 568 662 614 632 q 661 603 685 603 q 692 603 698 606 l 709 593 l 644 551 l 644 159 q 644 77 598 40 q 552 3 433 -26 q 314 -56 284 -76 q 253 -96 253 -114 q 253 -140 300 -140 q 325 -140 357 -128 q 432 -93 488 -72 q 544 -51 577 -51 q 617 -51 650 -74 q 682 -96 682 -139 q 682 -181 651 -200 q 620 -218 560 -218 l 547 -200 q 598 -200 623 -191 q 648 -182 648 -159 q 648 -143 637 -133 q 626 -123 591 -123 q 580 -123 471 -168 q 362 -212 326 -212 q 287 -212 256 -194 q 225 -176 225 -133 q 225 -87 248 -62 q 271 -38 363 -16 q 304 -9 256 22 q 209 52 209 114 l 209 301 l 174 301 q 150 301 136 286 q 121 272 121 238 l 96 238 q 90 255 88 266 q 85 278 85 291 q 85 328 113 350 q 141 373 209 373 l 209 501 q 209 541 187 560 q 165 578 125 578 q 91 578 62 562 q 32 546 32 514 z"},"c":{"x_min":0,"x_max":338,"ha":338,"o":"m 63 80 l 63 282 l 42 293 l 42 311 q 80 311 132 329 q 184 347 216 374 l 230 374 q 250 350 268 338 q 287 327 324 327 l 324 312 q 312 295 288 282 q 263 270 236 270 q 216 270 198 280 q 179 291 164 322 l 140 311 l 140 90 q 161 81 188 69 q 215 57 230 47 l 306 93 l 318 80 l 172 -12 l 151 -12 q 131 8 108 25 q 84 42 57 42 q 35 42 19 27 l 8 40 z"},"!":{"x_min":0,"x_max":283,"ha":283,"o":"m 40 8 l 27 21 l 131 98 l 153 98 l 215 54 l 245 75 l 257 64 l 156 -14 l 135 -14 l 74 29 z m 37 524 l 23 534 l 137 617 l 150 617 q 178 596 186 590 q 193 585 201 583 q 227 581 239 578 q 251 576 251 570 q 251 557 232 546 q 214 535 193 532 l 149 204 l 137 204 l 93 535 l 71 547 z"},"/":{"x_min":0,"x_max":283,"ha":283,"o":"m -6 -22 l 238 662 l 286 662 l 41 -22 z"},"[":{"x_min":0,"x_max":338,"ha":338,"o":"m 63 662 l 294 662 l 294 632 l 140 632 l 140 -138 l 296 -138 l 296 -168 l 63 -168 z"},"6":{"x_min":0,"x_max":505,"ha":505,"o":"m 345 65 l 345 260 l 248 296 l 166 252 l 166 95 l 282 43 z m 43 36 l 28 49 l 90 90 l 90 440 q 79 441 72 444 q 64 446 64 452 q 64 464 85 464 q 108 464 170 490 q 232 516 274 552 l 291 552 q 310 534 336 520 q 361 506 390 506 q 396 506 404 506 q 413 507 436 515 l 438 500 q 403 472 380 463 q 356 454 328 454 q 295 454 271 462 q 247 470 222 492 l 166 470 l 166 275 l 320 358 q 353 339 383 323 q 413 307 430 307 q 445 307 462 319 l 472 307 l 422 273 l 422 87 q 442 82 442 69 q 442 57 423 57 q 376 57 316 37 q 256 17 217 -12 l 204 -12 q 196 -4 158 21 q 119 46 78 46 q 56 46 43 36 z"},"r":{"x_min":0,"x_max":394,"ha":394,"o":"m 184 86 l 244 49 l 288 76 l 302 64 l 190 -12 l 171 -12 q 145 14 126 30 q 108 45 92 45 q 77 45 64 34 q 52 24 43 15 l 29 28 l 108 86 l 108 276 q 95 291 84 298 q 72 304 62 304 q 53 304 48 301 q 44 298 41 293 l 25 309 l 115 374 l 128 374 q 160 348 172 336 q 184 323 184 282 l 276 374 l 290 374 q 296 363 312 348 q 328 332 342 332 q 368 332 368 319 q 368 305 347 290 q 326 276 314 272 q 302 268 289 268 q 269 268 254 277 q 239 286 228 300 l 184 257 z"},"2":{"x_min":0,"x_max":505,"ha":505,"o":"m 56 -4 l 38 -4 q 38 72 113 158 l 251 301 q 326 387 326 463 q 310 469 298 474 q 287 480 274 488 q 247 460 207 439 q 167 418 111 418 q 104 418 96 419 q 87 420 70 422 q 53 423 53 430 q 53 437 78 444 q 103 450 137 476 q 171 503 205 552 l 215 552 q 243 527 303 496 q 363 464 406 464 q 434 464 434 454 q 434 445 414 440 q 414 372 378 325 q 342 278 280 238 q 217 198 145 151 q 73 104 67 38 q 134 104 228 104 q 310 104 383 61 l 424 98 l 437 87 l 338 -12 l 322 -12 q 252 28 222 39 q 191 50 148 50 q 121 50 95 38 q 69 27 56 -4 z"},"{":{"x_min":0,"x_max":338,"ha":338,"o":"m 127 -57 l 127 120 q 127 171 114 195 q 101 219 57 233 q 100 247 114 272 q 127 296 127 346 l 127 523 q 127 605 158 634 q 190 662 255 662 l 255 650 q 203 628 203 528 l 203 361 q 203 304 184 275 q 165 246 107 234 q 168 220 186 192 q 203 164 203 105 l 203 -62 q 203 -162 255 -184 l 255 -196 q 189 -196 158 -168 q 127 -141 127 -57 z"},"9":{"x_min":0,"x_max":505,"ha":505,"o":"m 155 475 l 155 280 l 251 244 l 334 288 l 334 445 l 218 497 z m 457 504 l 472 491 l 410 450 l 410 100 q 436 97 436 88 q 436 76 415 76 q 391 76 329 50 q 267 23 226 -12 l 209 -12 q 192 4 166 18 q 141 31 107 31 q 87 31 64 25 l 62 40 q 94 65 114 76 q 135 86 172 86 q 204 86 228 78 q 252 71 278 48 l 334 70 l 334 265 l 180 182 q 163 191 125 213 q 87 235 70 235 q 55 235 38 221 l 28 233 l 78 267 l 78 453 q 71 455 64 461 q 58 467 58 471 q 58 483 77 483 q 124 483 182 501 q 240 519 283 552 l 296 552 q 308 540 350 518 q 391 495 424 495 q 445 495 457 504 z"}," ":{"x_min":0,"x_max":255,"ha":255,"o":""},"I":{"x_min":0,"x_max":730,"ha":730,"o":"m 525 662 l 537 653 q 502 608 466 580 q 429 553 387 553 q 363 553 290 576 q 218 598 204 598 q 175 598 156 586 q 136 573 136 543 q 136 520 150 504 q 165 487 191 484 l 191 466 q 159 466 138 488 q 118 509 118 547 q 118 597 168 630 q 219 662 274 662 q 307 662 351 650 q 395 638 442 625 q 468 625 486 634 q 505 643 525 662 z m 230 -200 l 242 -218 q 157 -218 84 -174 q 12 -130 12 -40 q 12 32 60 92 q 109 152 193 152 q 270 152 344 74 q 418 -4 471 -4 q 515 -4 535 22 q 555 49 555 124 l 555 527 q 555 581 593 622 q 631 662 663 662 l 663 644 q 658 643 649 631 q 640 619 640 586 l 640 160 q 640 55 574 16 q 509 -22 433 -22 q 363 -22 263 34 q 163 90 136 90 q 85 90 58 52 q 30 13 30 -32 q 30 -96 82 -148 q 134 -200 230 -200 z m 521 574 l 527 559 q 510 546 500 533 q 490 520 490 495 l 490 194 q 490 141 468 114 q 447 87 377 75 l 377 88 q 405 101 405 130 l 405 301 l 385 301 q 346 301 334 292 q 323 284 315 252 l 297 252 q 297 314 310 342 q 324 369 364 369 l 405 369 l 405 460 q 405 493 444 526 q 483 560 521 574 z"},"H":{"x_min":0,"x_max":788,"ha":788,"o":"m 327 558 l 330 540 q 319 536 310 526 q 301 516 301 497 l 301 178 q 301 155 280 140 q 258 125 186 105 l 186 119 q 203 129 210 138 q 216 147 216 163 l 216 301 l 181 301 q 157 301 142 286 q 128 272 128 238 l 103 238 q 94 261 94 286 q 94 324 113 348 q 132 373 169 373 l 216 373 l 216 437 q 216 476 238 504 q 261 533 327 558 z m 361 46 l 361 620 q 340 599 306 581 q 273 563 231 563 q 204 563 149 578 q 94 594 87 594 q 24 594 24 542 q 24 522 32 510 q 41 499 64 481 l 56 468 q 36 477 21 496 q 6 514 6 537 q 6 583 48 622 q 91 662 154 662 q 180 662 194 660 q 207 657 252 644 q 298 630 309 630 q 327 630 344 637 q 360 644 378 662 l 388 650 q 379 645 379 635 l 379 504 q 385 502 426 496 q 467 491 481 491 l 492 491 q 512 491 529 492 q 546 494 590 502 l 590 563 l 540 593 l 503 572 l 499 590 l 625 662 q 702 606 713 606 q 721 606 733 614 q 745 621 755 627 l 762 610 l 674 553 l 674 74 l 729 41 l 761 57 l 773 44 l 694 2 l 676 -8 l 659 -22 l 634 -22 q 580 22 562 22 q 550 22 537 12 q 524 2 517 -4 l 504 10 l 590 69 l 590 146 q 564 150 534 154 q 503 159 481 159 q 469 159 457 159 q 440 157 379 144 l 379 44 l 424 71 l 431 52 l 304 -22 l 281 -22 q 226 0 198 6 q 170 11 134 11 q 85 11 54 -12 q 23 -36 23 -81 q 23 -138 84 -169 q 146 -200 228 -200 l 228 -218 q 112 -218 58 -180 q 5 -142 5 -68 q 5 -1 68 41 q 132 83 219 83 q 250 83 272 77 q 294 71 361 46 z m 379 488 l 379 373 l 590 373 l 590 486 q 548 479 527 476 q 506 473 483 473 q 465 473 432 478 q 399 484 379 488 z m 590 166 l 590 301 l 379 301 l 379 164 q 392 168 426 172 q 461 177 483 177 q 517 177 532 176 q 547 174 590 166 z"},"4":{"x_min":0,"x_max":505,"ha":505,"o":"m 244 474 l 100 300 l 100 201 l 271 201 l 271 457 z m 23 183 l 23 241 l 287 552 l 304 552 l 369 506 l 395 527 l 406 515 l 347 463 l 347 201 l 459 201 l 459 183 l 347 183 l 347 83 l 378 58 l 423 84 l 434 66 l 321 -12 l 306 -12 q 275 33 250 33 q 231 33 199 6 l 185 17 l 271 79 l 271 183 z"},"~":{"x_min":0,"x_max":608,"ha":608,"o":"m 497 247 l 532 205 q 519 186 504 168 q 488 150 470 134 q 452 119 408 119 q 382 119 360 128 q 337 136 326 142 q 315 148 302 154 q 290 160 276 166 q 262 173 242 180 q 221 187 190 187 q 161 187 140 166 q 119 145 106 115 l 69 157 q 79 177 90 192 q 102 206 125 224 q 148 243 195 243 q 217 243 241 236 q 265 229 306 212 l 369 185 q 392 175 409 175 q 437 175 452 190 q 466 204 475 214 q 484 225 497 247 z"},"D":{"x_min":0,"x_max":788,"ha":788,"o":"m 402 580 l 402 433 q 460 404 521 404 q 554 404 574 409 q 594 414 618 427 l 618 496 q 618 543 598 566 q 577 590 500 590 z m 402 413 l 402 243 q 447 257 466 262 q 484 266 509 266 l 525 266 q 547 266 568 261 q 589 256 618 238 l 618 407 q 565 386 510 386 q 486 386 464 390 q 443 395 402 413 z m 618 81 l 618 218 q 601 228 571 238 q 541 248 513 248 q 486 248 472 246 q 459 243 402 225 l 402 88 q 432 82 456 75 q 479 68 509 45 q 532 57 558 66 q 583 76 618 81 z m 342 545 l 347 532 q 329 522 322 512 q 316 502 316 484 l 316 221 q 316 176 288 149 q 260 122 201 116 l 201 130 q 214 135 222 147 q 231 159 231 174 l 231 301 l 209 301 q 185 301 173 294 q 161 287 156 255 l 143 255 q 141 265 140 274 q 139 284 139 298 q 139 343 156 356 q 172 370 232 376 l 231 424 q 231 470 254 496 q 278 523 342 545 z m 384 93 l 384 576 q 361 573 312 568 q 262 563 257 563 q 192 563 143 582 q 94 602 76 662 l 100 662 q 117 629 189 629 q 229 629 353 646 q 477 662 494 662 q 595 662 648 630 q 702 599 702 521 l 702 93 q 707 82 721 79 l 721 60 l 664 63 q 612 63 574 50 q 535 38 448 -22 l 423 -22 q 392 1 333 22 q 274 44 212 44 q 144 44 90 13 q 35 -18 35 -80 q 35 -143 95 -172 q 155 -200 227 -200 q 248 -200 282 -194 q 317 -189 346 -185 l 356 -203 q 288 -218 228 -218 q 153 -218 85 -189 q 17 -160 17 -88 q 17 -2 94 50 q 171 102 311 102 q 322 104 341 100 q 360 97 384 93 z"},"^":{"x_min":0,"x_max":608,"ha":608,"o":"m 154 175 l 92 175 l 276 540 l 328 540 l 510 175 l 450 175 l 302 470 z"},"0":{"x_min":0,"x_max":505,"ha":505,"o":"m 163 88 l 279 41 l 338 62 l 338 444 l 223 492 l 163 472 z m 34 29 l 28 46 l 87 83 l 87 444 l 63 463 l 63 475 q 135 475 193 498 q 251 520 283 552 l 295 552 l 412 483 l 463 513 l 468 494 l 414 461 l 414 80 q 435 75 435 65 q 435 56 409 56 q 371 56 310 32 q 250 9 226 -12 l 198 -12 q 99 50 75 50 q 64 50 56 46 q 48 41 34 29 z"},"F":{"x_min":0,"x_max":843,"ha":843,"o":"m 564 296 l 564 106 q 564 56 508 17 q 451 -22 363 -22 q 332 -22 245 0 q 158 21 146 21 q 98 21 66 -1 q 35 -23 35 -82 q 35 -139 95 -170 q 155 -200 221 -200 q 249 -200 272 -198 q 294 -196 367 -183 l 372 -200 q 345 -206 302 -212 q 259 -218 223 -218 q 135 -218 76 -182 q 17 -145 17 -72 q 17 2 72 46 q 127 89 193 89 q 259 89 330 61 q 370 42 400 28 q 431 15 448 15 q 482 15 482 67 l 482 545 q 539 573 584 600 q 629 626 659 662 l 672 662 q 693 625 730 625 q 749 625 771 635 q 793 645 814 662 l 825 652 q 789 606 756 580 q 722 554 666 548 l 666 368 l 690 368 l 690 352 l 666 329 l 666 -192 q 666 -220 645 -220 q 626 -220 626 -202 q 626 -182 648 -182 l 648 314 l 621 296 z m 589 581 l 565 569 l 565 368 l 648 368 l 648 550 q 645 550 638 552 q 630 553 589 581 z m 412 444 l 412 203 q 412 170 386 143 q 360 116 298 102 l 295 126 q 315 132 322 147 q 328 162 328 194 l 328 296 q 280 296 262 288 q 243 279 239 259 l 223 259 l 220 284 q 220 319 244 342 q 268 365 328 374 l 328 430 q 328 461 363 488 q 398 516 439 531 l 443 514 q 429 510 420 490 q 412 470 412 444 z m 182 475 l 171 464 q 130 496 130 548 q 130 602 180 632 q 230 662 295 662 q 301 662 317 662 q 333 662 370 652 q 407 641 427 636 q 447 631 459 631 q 478 631 494 637 q 509 643 536 662 l 544 650 q 519 619 476 592 q 433 564 388 564 q 371 564 302 581 q 233 598 213 598 q 190 598 169 584 q 148 569 148 543 q 148 497 182 475 z"},"`":{"x_min":0,"x_max":283,"ha":283,"o":"m 42 539 l 42 557 l 153 557 l 201 422 l 185 422 z"},"k":{"x_min":0,"x_max":451,"ha":451,"o":"m 250 326 l 158 269 l 158 155 l 320 245 z m 69 595 l 81 597 q 93 579 100 568 q 107 556 109 544 q 122 565 153 595 q 184 625 192 633 l 201 624 q 184 597 171 562 q 158 527 158 492 l 158 293 l 290 374 l 306 374 l 396 271 l 396 266 l 297 209 q 320 172 342 129 q 359 91 370 68 q 382 44 388 44 q 393 44 399 46 q 405 48 421 59 l 432 47 l 345 -12 l 329 -12 q 319 -8 278 80 q 237 168 231 174 l 158 134 l 158 86 l 202 54 l 227 68 l 238 57 l 142 -12 l 127 -12 q 116 0 98 16 q 80 33 59 33 q 45 33 34 22 l 20 35 l 81 76 l 81 514 q 82 521 82 527 q 82 537 80 550 q 78 563 69 595 z"},"u":{"x_min":0,"x_max":505,"ha":505,"o":"m 18 310 l 112 374 l 128 374 q 156 344 164 327 q 173 310 173 292 l 173 83 l 225 50 l 325 117 l 325 276 l 286 308 l 260 292 l 253 309 l 340 373 l 355 373 q 366 358 377 344 q 395 325 417 325 q 441 325 468 348 l 478 333 l 406 283 l 406 94 l 450 52 l 472 63 l 482 52 l 395 -12 l 376 -12 q 350 16 338 32 q 326 48 326 92 l 171 -12 l 155 -12 q 137 3 116 20 q 96 36 77 36 q 68 36 57 31 q 46 26 28 10 l 18 23 l 97 78 l 97 281 l 62 316 l 31 294 z"},"]":{"x_min":0,"x_max":338,"ha":338,"o":"m 272 -168 l 41 -168 l 41 -138 l 195 -138 l 195 632 l 39 632 l 39 662 l 272 662 z"},"U":{"x_min":0,"x_max":788,"ha":788,"o":"m 389 442 l 389 257 q 398 262 422 270 q 446 278 496 278 q 512 278 520 276 q 527 275 581 259 l 581 435 q 528 421 487 421 q 439 421 389 442 z m 413 39 l 581 141 l 581 238 q 533 260 483 260 q 434 260 389 241 l 389 54 z m 217 95 l 217 294 q 172 294 156 288 q 141 283 131 252 l 112 252 q 101 279 101 300 q 101 332 128 350 q 156 368 217 368 l 217 501 q 217 541 192 560 q 167 580 132 580 q 103 580 77 562 q 51 543 36 505 l 20 505 q 20 565 60 614 q 100 662 164 662 q 220 662 261 631 q 302 600 302 530 l 302 93 q 314 89 326 86 q 338 82 371 62 l 371 662 l 389 662 l 389 460 q 436 439 499 439 q 516 439 534 442 q 552 444 581 454 l 581 551 q 573 553 562 559 q 551 565 529 582 l 496 560 l 488 575 l 608 662 l 621 662 q 635 643 653 626 q 671 610 696 610 q 708 610 719 614 q 730 619 743 630 l 755 616 l 666 558 l 666 79 q 671 71 678 63 q 686 55 705 55 q 720 55 747 64 l 759 49 l 652 -22 l 633 -22 q 613 -11 597 23 q 581 57 581 120 l 350 -22 l 320 -22 q 298 -6 264 8 q 230 23 186 23 q 123 23 80 -6 q 37 -35 37 -97 q 37 -144 69 -172 q 101 -200 171 -200 l 200 -198 l 231 -193 l 231 -210 q 197 -218 167 -218 q 104 -218 62 -188 q 19 -157 19 -94 q 19 -27 70 28 q 122 84 217 95 z"},"o":{"x_min":0,"x_max":451,"ha":451,"o":"m 298 271 l 203 318 l 146 301 l 146 90 l 238 43 l 268 54 l 298 61 z m 425 344 l 437 330 l 374 287 l 374 83 q 400 73 400 60 q 400 51 376 51 q 321 51 262 35 q 203 19 172 -12 l 151 -12 q 119 12 95 26 q 71 41 61 41 q 53 41 42 34 q 30 26 24 22 l 9 34 l 69 74 l 69 282 l 52 293 q 41 300 42 304 q 43 308 47 311 q 99 311 164 326 q 229 341 272 374 l 290 374 q 302 362 334 341 q 365 320 379 320 q 386 320 402 328 q 417 337 425 344 z"},"N":{"x_min":0,"x_max":843,"ha":843,"o":"m 674 90 l 676 418 q 631 396 578 396 q 539 396 518 400 q 497 403 473 414 l 471 412 q 495 372 508 352 q 520 332 578 240 q 635 149 674 90 z m 272 538 l 272 238 q 296 242 324 244 q 353 247 370 247 l 380 247 q 434 247 488 228 q 440 311 392 386 q 343 460 272 538 z m 254 77 l 254 278 q 246 282 230 286 q 215 291 184 291 q 160 291 145 280 q 130 270 130 245 l 112 245 q 112 311 141 342 q 170 373 212 373 l 254 373 l 254 551 q 231 569 205 580 q 179 590 145 590 q 109 590 88 578 q 67 566 45 541 l 32 546 q 51 601 98 632 q 144 662 194 662 q 257 662 306 627 q 355 592 462 439 q 474 431 504 422 q 533 414 561 414 q 603 414 626 418 q 650 423 676 438 l 676 560 q 660 560 648 563 q 637 566 606 581 l 536 532 l 524 547 l 680 662 l 698 662 q 701 651 716 642 q 731 632 751 632 q 766 632 774 634 q 781 637 809 654 l 821 645 q 797 594 765 577 q 733 560 694 560 l 694 -37 l 677 -37 q 622 10 596 49 q 571 88 503 201 q 481 211 448 220 q 414 229 369 229 q 322 229 305 226 q 288 223 272 218 l 272 77 q 327 77 385 42 l 465 96 l 478 83 l 324 -22 l 292 -22 q 274 -8 244 2 q 215 13 178 13 q 122 13 78 -18 q 33 -48 33 -102 q 33 -200 152 -200 q 168 -200 188 -196 q 209 -192 227 -189 l 234 -206 q 208 -211 190 -214 q 173 -218 153 -218 q 76 -218 46 -188 q 15 -157 15 -105 q 15 -26 92 26 q 168 77 254 77 z"},"+":{"x_min":0,"x_max":608,"ha":608,"o":"m 279 204 l 279 362 l 325 362 l 325 204 l 484 204 l 484 158 l 325 158 l 325 0 l 279 0 l 279 158 l 120 158 l 120 204 z"},"G":{"x_min":0,"x_max":730,"ha":730,"o":"m 417 257 l 417 132 q 460 142 506 142 q 511 142 524 142 q 536 141 585 127 q 590 140 597 166 q 604 191 604 212 q 604 236 603 244 q 602 253 600 258 q 584 251 563 246 q 542 242 508 242 q 465 242 417 257 z m 417 109 l 417 -4 q 542 -4 579 108 q 540 124 495 124 q 483 124 471 124 q 445 121 417 109 z m 399 481 l 417 481 l 417 391 l 611 592 l 609 594 q 578 579 546 570 q 514 562 485 562 q 439 562 396 591 l 345 558 l 345 314 l 399 374 z m 282 646 l 282 627 q 207 594 163 519 q 119 444 119 291 q 119 143 186 70 q 254 -4 399 -4 l 399 343 l 345 281 l 345 166 q 345 138 319 108 q 293 77 235 58 l 230 74 q 261 93 261 127 l 261 498 l 193 456 l 189 475 l 468 662 l 486 662 q 494 643 516 634 q 538 624 569 624 q 592 624 616 630 q 641 636 681 662 l 691 652 l 449 394 q 452 394 468 396 q 483 397 494 397 q 573 397 636 345 q 700 293 700 211 q 700 103 600 40 q 499 -22 389 -22 q 234 -22 123 72 q 12 166 12 295 q 12 398 78 492 q 145 586 282 646 z m 417 363 l 417 280 q 436 270 465 265 q 494 260 520 260 q 537 260 560 264 q 582 269 598 277 q 581 333 551 356 q 521 379 481 379 q 459 379 444 374 q 429 370 417 363 z"},"q":{"x_min":0,"x_max":451,"ha":451,"o":"m 142 303 l 142 88 l 228 45 l 294 82 l 294 278 q 282 282 263 291 q 244 300 205 322 q 195 318 170 311 q 145 304 142 303 z m 423 343 l 435 329 l 370 282 l 370 -167 l 236 -237 l 230 -221 l 294 -187 l 294 58 l 187 2 q 164 -12 155 -12 q 143 -12 106 16 q 69 44 50 44 q 41 44 34 40 q 28 37 13 25 l 1 39 l 65 86 l 65 285 q 35 302 35 317 q 107 317 173 333 q 239 349 273 374 l 296 374 q 364 320 381 320 q 392 320 402 328 q 413 335 423 343 z"},"d":{"x_min":0,"x_max":451,"ha":451,"o":"m 142 308 l 142 90 l 234 44 l 299 66 l 299 289 l 231 348 q 212 335 192 324 q 171 313 142 308 z m 438 328 l 375 280 l 375 83 l 398 68 l 398 50 q 324 50 260 32 q 196 15 159 -12 l 139 -12 q 104 23 92 32 q 79 42 53 42 q 44 42 35 38 q 26 35 15 24 l 0 35 l 65 83 l 65 287 l 42 300 l 42 318 q 96 318 140 328 q 183 338 219 364 l 32 534 l 85 587 l 344 349 q 352 341 364 330 q 377 320 389 320 q 404 320 425 341 z"},"1":{"x_min":0,"x_max":505,"ha":505,"o":"m 107 439 l 103 456 l 239 552 l 250 552 q 280 540 292 517 q 303 494 303 439 l 303 85 l 363 53 l 435 98 l 446 86 l 301 -12 l 282 -12 q 244 15 226 26 q 208 37 191 37 q 180 37 166 28 q 151 18 109 -12 l 98 2 l 226 87 l 226 436 q 226 459 218 469 q 209 479 202 479 q 191 479 171 471 q 151 463 107 439 z"},"5":{"x_min":0,"x_max":505,"ha":505,"o":"m 279 45 l 310 61 l 310 252 l 183 308 l 90 269 l 80 279 l 116 530 l 359 530 q 360 530 375 540 q 390 549 393 546 q 393 528 368 495 q 343 462 308 462 l 124 462 l 101 292 l 260 361 q 305 335 346 314 q 387 293 396 293 q 415 301 425 304 q 430 303 436 302 q 436 296 425 285 q 414 274 386 257 l 386 90 q 409 82 409 68 q 409 64 368 55 q 326 46 286 29 q 246 12 222 -12 l 207 -12 q 178 22 150 36 q 121 50 58 50 q 39 50 39 58 q 39 68 64 77 q 90 86 113 89 q 136 92 152 92 q 193 92 226 80 q 259 67 279 45 z"}}}
